<svg xmlns="http://www.w3.org/2000/svg" width="1140" height="640" viewBox="0 0 1140 640" font-family="Helvetica,Arial,sans-serif">
<defs>
<marker id="arrow-E65100" markerWidth="10" markerHeight="10" refX="8" refY="3" orient="auto" markerUnits="strokeWidth"><path d="M0,0 L8,3 L0,6 z" fill="#E65100"/></marker>
<marker id="arrow-1B5E20" markerWidth="10" markerHeight="10" refX="8" refY="3" orient="auto" markerUnits="strokeWidth"><path d="M0,0 L8,3 L0,6 z" fill="#1B5E20"/></marker>
<marker id="arrow-1565C0" markerWidth="10" markerHeight="10" refX="8" refY="3" orient="auto" markerUnits="strokeWidth"><path d="M0,0 L8,3 L0,6 z" fill="#1565C0"/></marker>
<marker id="arrow-F9A825" markerWidth="10" markerHeight="10" refX="8" refY="3" orient="auto" markerUnits="strokeWidth"><path d="M0,0 L8,3 L0,6 z" fill="#F9A825"/></marker>
</defs>
<rect x="0" y="0" width="1140" height="640" fill="#ffffff"/>
<text x="570.0" y="38" text-anchor="middle" font-family="Helvetica,Arial,sans-serif" font-size="18" font-weight="bold" fill="#1B5E20">
<tspan x="570.0" dy="0">AgroSat — Arquitetura Macro da Solucao em Nuvem (DevOps &amp; Cloud Computing)</tspan>
</text>
<rect x="360" y="90" width="720" height="460" rx="10" ry="10" fill="#E8F0FE" stroke="#1A73E8" stroke-width="1.5" stroke-dasharray="6 4"/>
<text x="720.0" y="317.0" text-anchor="middle" font-family="Helvetica,Arial,sans-serif" font-size="12" font-weight="bold" fill="#1A73E8">
<tspan x="720.0" dy="0">Microsoft Azure — VM Linux (Ubuntu 22.04, northcentralus)</tspan>
<tspan x="720.0" dy="14">IP publico 135.232.218.201 — NAO e localhost</tspan>
</text>
<rect x="360" y="90" width="720" height="460" rx="10" fill="none" stroke="none"/>
<rect x="400" y="160" width="640" height="300" rx="10" ry="10" fill="#F1F8E9" stroke="#2E7D32" stroke-width="1.5" stroke-dasharray="6 4"/>
<text x="720.0" y="321.0" text-anchor="middle" font-family="Helvetica,Arial,sans-serif" font-size="11" fill="#000">
</text>
<text x="720" y="178" text-anchor="middle" font-family="Helvetica,Arial,sans-serif" font-size="12" font-weight="bold" fill="#2E7D32">
<tspan x="720" dy="0">Rede Docker: agrosat-net-566067</tspan>
</text>
<rect x="362" y="92" width="716" height="34" fill="#E8F0FE" stroke="none"/>
<text x="720" y="108" text-anchor="middle" font-family="Helvetica,Arial,sans-serif" font-size="12" font-weight="bold" fill="#1A73E8">
<tspan x="720" dy="0">Microsoft Azure — VM Linux (Ubuntu 22.04, northcentralus)  •  IP publico 135.232.218.201 (NAO e localhost)</tspan>
</text>
<rect x="402" y="162" width="636" height="22" fill="#F1F8E9" stroke="none"/>
<text x="720" y="177" text-anchor="middle" font-family="Helvetica,Arial,sans-serif" font-size="12" font-weight="bold" fill="#2E7D32">
<tspan x="720" dy="0">Rede Docker: agrosat-net-566067</tspan>
</text>
<text x="150" y="104" text-anchor="middle" font-family="Helvetica,Arial,sans-serif" font-size="12" font-weight="bold" fill="#1565C0">
<tspan x="150" dy="0">CLIENTES</tspan>
</text>
<rect x="60" y="120" width="180" height="70" rx="10" ry="10" fill="#E3F2FD" stroke="#1565C0" stroke-width="1.5"/>
<text x="150.0" y="145.0" text-anchor="middle" font-family="Helvetica,Arial,sans-serif" font-size="11" font-weight="bold" fill="#000">
<tspan x="150.0" dy="0">App Mobile</tspan>
<tspan x="150.0" dy="14">(React Native / Expo)</tspan>
<tspan x="150.0" dy="14">Produtor rural</tspan>
</text>
<rect x="60" y="210" width="180" height="60" rx="10" ry="10" fill="#E3F2FD" stroke="#1565C0" stroke-width="1.5"/>
<text x="150.0" y="237.0" text-anchor="middle" font-family="Helvetica,Arial,sans-serif" font-size="11" fill="#000">
<tspan x="150.0" dy="0">Navegador</tspan>
<tspan x="150.0" dy="14">Swagger UI / curl (testes)</tspan>
</text>
<rect x="60" y="290" width="180" height="60" rx="10" ry="10" fill="#FFF3E0" stroke="#E65100" stroke-width="1.5"/>
<text x="150.0" y="317.0" text-anchor="middle" font-family="Helvetica,Arial,sans-serif" font-size="11" font-weight="bold" fill="#000">
<tspan x="150.0" dy="0">ESP32 (IoT no campo)</tspan>
<tspan x="150.0" dy="14">umidade do solo, temperatura</tspan>
</text>
<rect x="60" y="370" width="180" height="60" rx="10" ry="10" fill="#FFF3E0" stroke="#E65100" stroke-width="1.5"/>
<text x="150.0" y="397.0" text-anchor="middle" font-family="Helvetica,Arial,sans-serif" font-size="11" font-weight="bold" fill="#000">
<tspan x="150.0" dy="0">Dados de Satelite</tspan>
<tspan x="150.0" dy="14">NDVI / chuva (simulado)</tspan>
</text>
<rect x="430" y="222" width="260" height="158" rx="10" ry="10" fill="#C8E6C9" stroke="#1B5E20" stroke-width="1.5"/>
<text x="560.0" y="270.0" text-anchor="middle" font-family="Helvetica,Arial,sans-serif" font-size="11" font-weight="bold" fill="#000">
<tspan x="560.0" dy="0">Container 1 — APP</tspan>
<tspan x="560.0" dy="14">agrosat-app-566067</tspan>
<tspan x="560.0" dy="14">Imagem propria (Dockerfile)</tspan>
<tspan x="560.0" dy="14">Spring Boot 3 + JPA + JWT</tspan>
<tspan x="560.0" dy="14">usuario nao-root: agrosat • WORKDIR /app</tspan>
<tspan x="560.0" dy="14">porta 8080 exposta</tspan>
</text>
<path d="M780,227 L780,353 A105.0,12 0 0 0 990,353 L990,227" fill="#FFE0B2" stroke="none"/>
<path d="M780,353 A105.0,12 0 0 0 990,353" fill="none" stroke="#E65100" stroke-width="1.5"/>
<line x1="780" y1="227" x2="780" y2="353" stroke="#E65100" stroke-width="1.5"/>
<line x1="990" y1="227" x2="990" y2="353" stroke="#E65100" stroke-width="1.5"/>
<ellipse cx="885.0" cy="227" rx="105.0" ry="12" fill="#FFE0B2" stroke="#E65100" stroke-width="1.5"/>
<text x="885.0" y="266.0" text-anchor="middle" font-family="Helvetica,Arial,sans-serif" font-size="11" font-weight="bold" fill="#000">
<tspan x="885.0" dy="0">Container 2 — BANCO</tspan>
<tspan x="885.0" dy="14">agrosat-db-566067</tspan>
<tspan x="885.0" dy="14">Imagem publica postgres:16</tspan>
<tspan x="885.0" dy="14">porta 5432 exposta</tspan>
<tspan x="885.0" dy="14">10 tabelas + relacionamentos</tspan>
</text>
<path d="M820,393 L820,437 A65.0,8 0 0 0 950,437 L950,393" fill="#FFF8E1" stroke="none"/>
<path d="M820,437 A65.0,8 0 0 0 950,437" fill="none" stroke="#F9A825" stroke-width="1.5"/>
<line x1="820" y1="393" x2="820" y2="437" stroke="#F9A825" stroke-width="1.5"/>
<line x1="950" y1="393" x2="950" y2="437" stroke="#F9A825" stroke-width="1.5"/>
<ellipse cx="885.0" cy="393" rx="65.0" ry="8" fill="#FFF8E1" stroke="#F9A825" stroke-width="1.5"/>
<text x="885.0" y="405.0" text-anchor="middle" font-family="Helvetica,Arial,sans-serif" font-size="10" fill="#000">
<tspan x="885.0" dy="0">Volume nomeado</tspan>
<tspan x="885.0" dy="14">pgdata-566067</tspan>
<tspan x="885.0" dy="14">(persistencia)</tspan>
</text>
<polyline points="240,155 340,155 340,255 430,255" fill="none" stroke="#1565C0" stroke-width="1.5" marker-end="url(#arrow-1565C0)"/>
<polyline points="240,240 362,240 362,288 430,288" fill="none" stroke="#1565C0" stroke-width="1.5" marker-end="url(#arrow-1565C0)"/>
<polyline points="240,320 430,320" fill="none" stroke="#E65100" stroke-width="1.5" marker-end="url(#arrow-E65100)"/>
<polyline points="240,400 405,400 405,352 430,352" fill="none" stroke="#E65100" stroke-width="1.5" marker-end="url(#arrow-E65100)"/>
<polyline points="690,290 780,290" fill="none" stroke="#1B5E20" stroke-width="2" marker-end="url(#arrow-1B5E20)"/>
<polyline points="885,365 885,385" fill="none" stroke="#F9A825" stroke-width="1.5" marker-end="url(#arrow-F9A825)" stroke-dasharray="5 3"/>
<text x="345" y="145" text-anchor="middle" font-family="Helvetica,Arial,sans-serif" font-size="9" fill="#1565C0">
<tspan x="345" dy="0">HTTP/REST + JWT (8080, IP publico)</tspan>
</text>
<text x="735" y="282" text-anchor="middle" font-family="Helvetica,Arial,sans-serif" font-size="9" fill="#1B5E20">
<tspan x="735" dy="0">JDBC postgresql://agrosat-db-566067:5432/agrosat</tspan>
</text>
<text x="570.0" y="600" text-anchor="middle" font-family="Helvetica,Arial,sans-serif" font-size="12" fill="#2E7D32">
<tspan x="570.0" dy="0">ODS 2 (Fome zero) • 8 (Trabalho/Crescimento) • 9 (Industria/Inovacao) • 13 (Acao climatica)</tspan>
</text>
</svg>